<?xml version="1.0" standalone="no"?>
<!DOCTYPE svg PUBLIC "-//W3C//DTD SVG 20010904//EN"
 "http://www.w3.org/TR/2001/REC-SVG-20010904/DTD/svg10.dtd">
<svg version="1.0" xmlns="http://www.w3.org/2000/svg"
 width="700.000000pt" height="700.000000pt" viewBox="0 0 700.000000 700.000000"
 preserveAspectRatio="xMidYMid meet">
<metadata>
Created by potrace 1.14, written by Peter Selinger 2001-2017
</metadata>
<g transform="translate(0.000000,700.000000) scale(0.100000,-0.100000)"
fill="#000000" stroke="none">
<path d="M606 6343 c-1 -1 -20 -5 -42 -9 -104 -16 -232 -110 -289 -212 -59
-104 -55 19 -55 -2162 0 -1103 2 -2022 5 -2042 15 -138 113 -276 240 -339 82
-40 132 -47 330 -49 244 -1 518 -12 645 -25 25 -2 74 -7 110 -10 36 -3 76 -8
90 -10 14 -2 50 -7 80 -10 72 -8 162 -21 215 -31 95 -18 233 -48 295 -65 41
-11 91 -24 111 -29 38 -10 169 -55 204 -70 11 -5 63 -27 116 -50 172 -73 337
-177 477 -298 93 -80 141 -71 142 27 1 25 1 1076 1 2334 l1 2288 -26 52 c-53
110 -357 308 -646 422 -187 74 -431 143 -635 180 -111 21 -152 27 -325 50
-120 16 -162 20 -295 30 -44 4 -100 8 -125 10 -113 10 -618 24 -624 18z"/>
<path d="M6197 6344 c-1 -1 -87 -5 -192 -9 -104 -3 -210 -8 -235 -10 -68 -5
-199 -15 -255 -21 -71 -6 -287 -34 -305 -39 -8 -2 -37 -6 -64 -10 -27 -3 -52
-8 -55 -9 -3 -2 -28 -7 -56 -11 -126 -16 -402 -91 -575 -155 -47 -17 -94 -34
-105 -38 -51 -15 -279 -136 -365 -192 -172 -114 -247 -186 -264 -255 -5 -20
-11 -4128 -6 -4642 0 -84 51 -95 125 -27 28 25 66 58 85 73 19 14 41 32 49 39
52 49 269 168 413 225 117 47 361 122 433 134 11 1 52 10 90 18 39 8 84 17
100 20 17 2 39 7 51 9 12 2 45 7 75 11 30 4 74 10 99 15 25 4 52 8 60 8 8 0
38 3 65 6 80 10 202 21 340 31 56 4 268 11 590 20 144 3 177 10 265 56 88 45
190 178 206 267 3 14 7 29 10 34 8 12 6 4045 -1 4093 -11 71 -70 180 -126 235
-59 57 -151 105 -224 116 -42 6 -223 12 -228 8z"/>
</g>
</svg>
